<?xml version="1.0" standalone="no"?>
<!DOCTYPE svg PUBLIC "-//W3C//DTD SVG 20010904//EN"
 "http://www.w3.org/TR/2001/REC-SVG-20010904/DTD/svg10.dtd">
<svg version="1.0" xmlns="http://www.w3.org/2000/svg"
 width="2560.000000pt" height="1575.000000pt" viewBox="0 0 2560.000000 1575.000000"
 preserveAspectRatio="xMidYMid meet">

<g transform="translate(0.000000,1575.000000) scale(0.100000,-0.100000)"
fill="#000000" stroke="none">
<path d="M5 15613 c5 -107 505 -15544 505 -15592 0 -8 342 -11 1240 -11 l1240
0 -6 353 c-2 193 -13 1488 -24 2877 -11 1389 -22 2699 -25 2912 l-6 388 1041
0 1040 0 0 1015 0 1015 -1042 0 -1041 0 6 1202 c4 661 7 1813 7 2560 l0 1358
1355 0 1355 0 0 363 c0 199 -3 662 -7 1030 l-6 667 -2820 0 -2819 0 7 -137z"/>
<path d="M6624 15503 c9 -326 306 -15285 306 -15403 l0 -90 1280 0 1280 0 0
63 c0 34 11 3336 25 7337 14 4001 25 7515 25 7808 l0 532 -1461 0 -1461 0 6
-247z"/>
<path d="M10907 15523 c3 -186 213 -15423 213 -15492 l0 -21 1183 0 1184 0 6
1498 c4 823 10 2288 14 3255 l6 1757 1421 -2 1421 -3 16 -95 c93 -531 171
-1704 219 -3265 25 -826 50 -2182 50 -2746 0 -185 3 -351 6 -368 l7 -31 1142
0 1143 0 6 143 c31 698 42 3456 18 4337 -29 1035 -61 1733 -118 2545 -259
3712 -930 6428 -2099 8503 l-120 212 -2861 0 -2861 0 4 -227z m4064 -1928
c570 -1134 938 -2578 1249 -4896 16 -124 30 -228 30 -232 0 -10 -2838 -9
-2844 1 -3 5 1 1165 9 2578 8 1413 15 2613 15 2667 l0 97 718 -2 717 -3 106
-210z"/>
<path d="M18620 14760 l0 -990 1004 0 c553 0 1007 -3 1009 -7 3 -5 -8 -2969
-24 -6588 -15 -3619 -28 -6712 -29 -6872 l0 -293 1234 0 1235 0 5 52 c3 29
120 3081 261 6783 140 3702 258 6774 261 6828 l6 97 999 0 999 0 0 328 c0 181
-3 626 -7 990 l-6 662 -3474 0 -3473 0 0 -990z"/>
</g>
</svg>
