<?xml version="1.0" standalone="no"?>
<!DOCTYPE svg PUBLIC "-//W3C//DTD SVG 20010904//EN"
 "http://www.w3.org/TR/2001/REC-SVG-20010904/DTD/svg10.dtd">
<svg version="1.0" xmlns="http://www.w3.org/2000/svg"
 width="4096.000000pt" height="2894.000000pt" viewBox="0 0 4096.000000 2894.000000"
 preserveAspectRatio="xMidYMid meet">

<g transform="translate(0.000000,2894.000000) scale(0.100000,-0.100000)"
fill="#000000" stroke="none">
<path d="M19275 26849 c-4188 -73 -7285 -456 -8669 -1074 -123 -55 -308 -151
-356 -185 -15 -11 -31 -20 -35 -20 -3 0 -21 -11 -39 -25 -18 -14 -37 -25 -43
-25 -5 0 -18 -8 -29 -18 -10 -9 -32 -26 -49 -36 -16 -11 -34 -23 -40 -28 -5
-4 -33 -25 -61 -45 -97 -71 -224 -183 -344 -303 -102 -102 -138 -142 -252
-285 -30 -37 -105 -136 -115 -151 -7 -11 -30 -44 -51 -74 -345 -503 -615
-1207 -731 -1909 -12 -68 -20 -135 -20 -150 1 -15 5 -4 10 24 74 406 138 660
243 957 149 422 347 808 578 1131 247 343 590 669 937 889 459 292 1161 529
2171 732 166 33 254 49 527 97 65 11 138 24 163 29 25 6 142 23 260 40 118 17
260 37 315 46 179 27 842 104 1215 139 1490 144 3385 230 4915 224 721 -3 607
-3 1265 0 1521 6 3429 -81 4905 -224 628 -60 1450 -165 1845 -235 523 -92 681
-123 960 -186 684 -153 1267 -344 1610 -527 187 -99 310 -177 465 -296 642
-493 1101 -1208 1375 -2141 57 -196 136 -555 156 -710 4 -30 9 -49 11 -43 12
36 -72 483 -133 707 -170 626 -403 1118 -745 1577 -131 175 -398 452 -548 569
-25 19 -52 42 -62 50 -9 8 -33 26 -53 40 -20 14 -49 35 -64 48 -15 12 -35 25
-44 28 -10 3 -18 10 -18 15 0 5 -5 9 -12 9 -6 0 -26 11 -44 25 -18 14 -36 25
-40 25 -4 0 -21 11 -38 23 -68 52 -369 198 -556 270 -1110 431 -3047 735
-5670 892 -1563 93 -3453 132 -5065 104z"/>
<path d="M18410 26133 c-647 -8 -1506 -32 -2110 -58 -2259 -100 -3720 -334
-4718 -756 -174 -74 -215 -93 -347 -160 -407 -208 -718 -454 -1004 -795 -522
-623 -811 -1476 -940 -2774 -98 -980 -120 -2526 -56 -3945 142 -3128 520
-5746 1010 -6980 522 -1315 1451 -2047 3055 -2409 897 -202 1931 -295 3770
-338 728 -17 5929 -17 6660 0 992 23 1639 55 2220 107 1854 169 2981 562 3743
1304 469 457 787 1017 1027 1807 442 1454 755 3997 872 7074 23 606 11 1966
-22 2605 -85 1614 -326 2591 -818 3310 -221 324 -516 618 -822 823 -469 313
-1133 570 -1913 741 -1218 268 -2796 396 -5442 441 -480 8 -3572 11 -4165 3z
m-3875 -353 c-6 -10 38 -34 130 -70 33 -13 80 -37 105 -53 25 -17 105 -70 177
-119 73 -49 139 -91 148 -94 8 -3 24 5 37 20 25 28 80 40 323 70 217 28 906
91 1205 111 551 37 2835 95 3745 95 894 0 3156 -57 3740 -94 182 -12 822 -69
1030 -92 121 -13 389 -49 435 -57 39 -8 61 -20 73 -42 12 -23 13 -23 192 97
99 66 200 129 225 140 153 68 179 82 174 90 -16 26 404 -54 836 -158 103 -25
279 -84 346 -116 73 -35 252 -175 345 -271 l67 -68 38 26 c34 24 46 26 94 22
30 -3 66 -9 80 -12 14 -3 36 -8 50 -11 86 -18 459 -132 575 -176 501 -192 815
-348 1038 -517 288 -217 645 -701 878 -1186 150 -315 238 -586 298 -925 85
-476 202 -1412 261 -2080 46 -518 34 -2069 -25 -3260 -88 -1762 -300 -3614
-591 -5150 -93 -491 -156 -764 -210 -910 -18 -50 -29 -101 -32 -155 -3 -72 -1
-84 20 -115 13 -19 34 -36 46 -38 32 -5 127 94 192 201 29 48 55 85 57 83 2
-2 -17 -62 -42 -132 -588 -1631 -1724 -2404 -3975 -2708 -687 -93 -1445 -144
-2650 -178 -633 -18 -6499 -18 -7130 0 -1858 53 -2855 156 -3759 388 -407 104
-744 227 -1066 389 -397 200 -658 388 -945 682 -147 149 -232 251 -347 411
-194 271 -397 676 -528 1052 -40 116 -38 117 27 15 68 -106 121 -168 161 -190
l36 -19 26 24 c56 53 54 164 -5 318 -49 129 -122 455 -214 952 -278 1504 -483
3278 -570 4950 -43 802 -56 1356 -56 2322 0 757 1 798 25 1075 76 872 218
1931 309 2308 87 355 232 699 445 1054 204 339 467 659 666 812 172 132 529
322 815 434 80 31 159 62 175 70 89 39 581 190 695 213 73 15 143 8 178 -17
18 -13 35 -21 38 -18 3 2 17 20 32 40 39 52 288 254 352 287 83 41 283 105
490 154 184 44 563 122 630 129 70 8 91 7 85 -3z"/>
<path d="M14535 25713 c110 -614 267 -1367 721 -3458 141 -650 392 -1751 603
-2652 131 -555 520 -1892 754 -2588 235 -696 347 -945 593 -1318 246 -370 550
-656 894 -840 300 -161 744 -262 1370 -314 313 -26 1555 -26 1865 0 990 82
1443 256 1925 737 230 230 449 554 631 935 186 390 613 1730 943 2960 104 386
451 1882 671 2885 104 474 426 1975 531 2470 111 522 238 1183 232 1201 -3 9
-212 -114 -294 -174 -27 -20 -102 -65 -165 -100 l-114 -64 -123 -484 c-1117
-4413 -1435 -5604 -1768 -6622 -422 -1287 -795 -2020 -1253 -2460 -266 -255
-584 -393 -1066 -462 l-100 -14 115 4 c208 9 426 45 603 101 116 37 341 140
394 180 17 13 38 24 46 24 7 0 31 13 53 30 21 16 44 30 49 30 6 0 48 30 95 65
47 35 128 95 180 132 140 100 273 238 367 379 43 66 83 128 89 140 12 22 75
131 135 234 92 157 274 588 369 870 105 317 160 494 284 920 36 124 77 261 90
305 14 44 30 100 36 125 6 25 60 191 120 370 59 179 122 372 139 430 18 58 36
114 41 125 5 11 26 72 46 135 20 63 56 175 80 249 24 74 44 141 45 150 0 9 3
11 5 5 3 -7 -8 -67 -25 -135 -16 -68 -57 -248 -91 -399 -33 -151 -67 -302 -75
-335 -8 -33 -35 -161 -60 -285 -56 -268 -118 -525 -191 -790 -30 -107 -66
-238 -80 -290 -24 -88 -64 -226 -149 -520 -18 -63 -47 -160 -65 -215 -17 -55
-43 -136 -56 -180 -13 -44 -39 -123 -58 -175 -19 -52 -63 -171 -96 -265 -114
-313 -193 -505 -279 -675 -44 -87 -100 -219 -129 -305 -40 -120 -85 -229 -125
-299 -188 -333 -488 -551 -974 -708 -84 -26 -172 -52 -195 -57 -24 -5 -85 -19
-137 -31 -52 -11 -126 -25 -165 -30 -39 -6 -100 -14 -136 -20 -494 -77 -2042
-77 -2555 0 -38 5 -103 15 -143 20 -156 21 -532 120 -647 170 -22 10 -74 33
-115 51 -41 18 -106 50 -145 72 -38 22 -84 48 -101 57 -51 27 -165 114 -225
172 -133 128 -242 294 -309 471 -18 48 -37 90 -41 93 -5 3 -9 14 -9 26 0 30
-62 182 -135 333 -106 218 -165 362 -291 715 -25 69 -57 157 -70 195 -29 80
-53 151 -82 245 -11 36 -38 124 -60 195 -85 274 -216 740 -334 1185 -53 202
-74 289 -97 415 -5 28 -23 111 -40 185 -16 74 -32 146 -34 160 -5 23 -50 228
-82 365 -7 33 -25 114 -40 180 -50 225 -67 300 -81 349 -8 27 -14 54 -13 60 1
13 63 -175 174 -519 42 -132 124 -380 181 -550 56 -171 119 -364 138 -430 19
-66 69 -237 111 -380 42 -143 91 -312 110 -375 53 -185 187 -592 230 -700 8
-19 39 -100 69 -180 85 -228 174 -424 252 -555 23 -38 58 -99 78 -135 42 -76
37 -67 142 -230 92 -143 203 -261 332 -355 46 -33 109 -80 141 -105 31 -25 84
-63 117 -84 32 -22 78 -52 101 -68 23 -15 46 -28 52 -28 6 0 34 -15 63 -34 29
-18 89 -50 133 -70 44 -20 98 -45 120 -55 156 -72 484 -138 733 -146 l117 -4
-105 14 c-455 64 -774 196 -1031 426 -139 125 -330 360 -467 575 -349 548
-706 1466 -1096 2814 -280 971 -626 2296 -1537 5895 l-81 320 -111 60 c-61 33
-137 80 -170 104 -60 43 -208 135 -266 166 l-31 15 5 -27z"/>
<path d="M27681 24972 c-1 -169 -4 -356 -6 -417 -2 -60 -7 -306 -10 -545 -4
-239 -8 -448 -10 -463 -2 -15 -6 -143 -10 -285 -3 -141 -10 -333 -16 -427 -5
-93 -11 -204 -14 -245 -2 -41 -7 -167 -10 -280 -10 -385 -25 -609 -64 -1020
-5 -52 -12 -140 -15 -195 -4 -55 -11 -154 -16 -220 -9 -119 -14 -182 -25 -345
-11 -155 -25 -282 -45 -399 -10 -64 -28 -186 -40 -271 -49 -360 -210 -1294
-315 -1840 -20 -102 -45 -230 -55 -285 -10 -55 -25 -131 -33 -170 -8 -38 -18
-92 -22 -119 -3 -26 -18 -96 -31 -155 -13 -58 -36 -160 -49 -226 -14 -66 -39
-183 -55 -260 -17 -77 -37 -174 -45 -215 -8 -41 -26 -129 -41 -195 -14 -66
-37 -169 -50 -230 -13 -60 -29 -137 -34 -170 -16 -100 -39 -243 -59 -370 -32
-203 -112 -687 -122 -740 -20 -109 -91 -649 -165 -1263 -10 -81 -62 -407 -124
-767 -7 -43 -32 -159 -72 -340 -38 -171 -88 -311 -157 -440 -160 -300 -563
-801 -957 -1190 -302 -299 -588 -500 -802 -565 -76 -23 -84 -22 -89 10 -1 10
-10 38 -18 62 -9 24 -18 53 -20 65 -3 12 -32 106 -66 210 -33 103 -67 211 -76
238 -8 28 -21 64 -28 80 -6 17 -44 131 -85 255 -157 486 -315 865 -462 1108
-277 459 -695 743 -1325 901 -435 109 -823 150 -1498 158 -448 6 -730 -3
-1030 -33 -1004 -98 -1622 -374 -1991 -891 -121 -169 -245 -411 -359 -697 -69
-175 -268 -756 -258 -756 3 0 1 -6 -5 -12 -8 -10 -117 -339 -127 -383 -1 -5
-7 -21 -12 -35 -6 -14 -18 -54 -28 -90 -9 -36 -23 -78 -30 -95 -7 -16 -16 -47
-20 -68 -4 -20 -11 -39 -15 -42 -13 -8 -114 23 -191 59 -111 53 -261 149 -380
244 -30 24 -63 50 -74 59 -26 21 -118 106 -225 208 -93 89 -254 260 -383 409
-29 33 -59 67 -67 75 -17 18 -121 144 -160 195 -218 284 -333 458 -402 606
-36 77 -92 256 -117 375 -66 311 -81 386 -90 445 -6 36 -17 106 -26 155 -35
209 -67 427 -100 690 -19 154 -37 298 -40 320 -3 22 -14 114 -26 205 -20 164
-24 195 -34 268 -3 20 -10 69 -15 107 -6 39 -14 93 -20 120 -19 102 -31 176
-156 960 -18 115 -50 291 -63 350 -5 22 -21 96 -36 165 -14 69 -35 166 -46
215 -11 50 -28 133 -39 185 -23 118 -73 355 -99 475 -21 93 -63 305 -106 530
-14 72 -31 164 -39 205 -34 171 -68 360 -111 610 -25 146 -63 362 -85 480 -36
200 -139 845 -175 1095 -22 153 -32 254 -50 520 -22 315 -85 1076 -100 1205
-2 25 -7 164 -10 310 -3 146 -8 299 -10 340 -7 107 -16 247 -20 305 -6 77 -21
536 -30 925 -3 107 -7 285 -10 395 -2 110 -8 414 -11 675 -4 261 -8 477 -10
479 -2 2 -36 -28 -76 -67 l-72 -70 -4 -414 c-10 -1006 41 -2690 128 -4223 118
-2068 256 -3661 665 -7690 253 -2494 373 -3681 387 -3837 12 -134 11 -139 -9
-182 -26 -52 -25 -52 62 -86 33 -13 64 -27 70 -32 5 -4 16 -8 25 -8 10 0 54
-18 99 -40 45 -22 84 -40 86 -40 2 0 28 -11 57 -24 67 -30 186 -79 358 -147
74 -29 144 -58 155 -65 37 -22 209 -72 320 -93 147 -27 381 -50 594 -59 l174
-7 76 32 c42 18 126 53 186 79 61 25 160 64 220 84 61 21 136 50 168 64 50 23
57 29 57 54 0 105 552 1934 757 2507 222 621 326 832 535 1080 338 402 752
580 1498 647 202 18 1339 18 1540 0 431 -39 709 -104 960 -223 326 -155 613
-446 798 -806 94 -184 287 -700 435 -1163 261 -817 591 -1935 599 -2034 3 -38
3 -38 96 -77 51 -21 125 -48 165 -60 40 -12 94 -33 122 -46 27 -14 79 -37 115
-50 36 -13 99 -39 140 -57 l75 -33 170 8 c440 21 732 71 925 158 84 38 265
111 275 111 4 0 25 8 48 19 23 10 98 42 167 71 69 29 146 63 172 76 25 13 64
30 85 38 98 36 173 69 173 75 0 4 -10 27 -21 51 l-22 44 72 716 c40 393 139
1379 222 2190 307 3030 361 3573 479 4850 181 1970 313 3952 375 5630 31 851
36 1077 42 1976 l6 922 -38 45 c-20 24 -57 61 -80 80 l-43 36 -1 -307z m-7656
-11957 c242 -9 549 -9 780 0 315 13 755 10 860 -5 220 -32 440 -79 520 -111
11 -4 65 -24 120 -44 157 -57 303 -142 413 -240 106 -96 242 -307 242 -377 0
-25 -4 -28 -33 -28 -42 0 -103 31 -246 124 -41 27 -100 62 -130 78 -31 17 -74
43 -96 58 -99 66 -391 202 -465 215 -15 3 -42 11 -61 19 -39 16 -293 68 -415
85 -196 27 -398 34 -1114 34 -843 0 -986 -7 -1265 -60 -44 -8 -102 -19 -128
-24 -162 -28 -496 -165 -666 -272 -92 -59 -274 -169 -349 -213 -72 -42 -138
-56 -148 -31 -18 49 83 222 206 351 116 122 272 218 475 291 254 93 472 137
755 155 114 7 499 5 745 -5z"/>
<path d="M19478 15343 c12 -2 30 -2 40 0 9 3 -1 5 -23 4 -22 0 -30 -2 -17 -4z"/>
<path d="M21288 15343 c12 -2 30 -2 40 0 9 3 -1 5 -23 4 -22 0 -30 -2 -17 -4z"/>
<path d="M13115 8769 c227 -90 354 -130 585 -183 74 -17 244 -35 370 -39 83
-2 85 -2 85 22 0 16 -16 36 -55 67 l-55 43 -65 -15 c-77 -18 -213 -8 -445 32
-142 25 -430 89 -473 105 -13 5 -29 9 -35 8 -7 0 33 -18 88 -40z"/>
<path d="M27570 8759 c-288 -72 -626 -118 -726 -100 -30 6 -60 13 -65 17 -12
7 -47 -15 -100 -63 -43 -39 -49 -59 -19 -68 27 -9 372 22 450 41 36 8 94 22
130 30 72 17 300 94 425 144 132 53 119 52 -95 -1z"/>
<path d="M16949 8368 c-85 -61 -67 -72 151 -87 212 -14 304 -18 570 -26 113
-3 324 -10 470 -14 789 -25 4022 -22 4720 4 58 2 186 7 285 10 421 14 709 31
735 44 30 16 22 40 -23 69 -43 27 -49 28 -119 21 -968 -99 -5421 -103 -6607
-5 l-144 12 -38 -28z"/>
<path d="M8432 22460 c0 -19 2 -27 5 -17 2 9 2 25 0 35 -3 9 -5 1 -5 -18z"/>
<path d="M32372 22400 c0 -19 2 -27 5 -17 2 9 2 25 0 35 -3 9 -5 1 -5 -18z"/>
<path d="M8422 22385 c0 -16 2 -22 5 -12 2 9 2 23 0 30 -3 6 -5 -1 -5 -18z"/>
<path d="M32383 22315 c0 -22 2 -30 4 -17 2 12 2 30 0 40 -3 9 -5 -1 -4 -23z"/>
<path d="M8397 22110 c-87 -1024 -126 -1965 -127 -3075 -2 -3764 570 -7611
1381 -9294 162 -336 300 -537 534 -779 425 -439 946 -767 1613 -1014 111 -41
321 -111 367 -122 6 -1 44 -13 85 -25 79 -24 451 -121 485 -126 11 -1 74 -15
140 -29 181 -40 421 -83 610 -110 61 -9 198 -29 305 -45 107 -17 283 -39 390
-51 107 -11 251 -27 320 -34 69 -8 195 -19 280 -25 85 -7 252 -20 370 -30 118
-10 224 -18 235 -17 21 1 156 -6 515 -28 118 -7 238 -14 265 -14 28 -1 219 -8
425 -17 206 -8 744 -24 1195 -35 451 -12 975 -25 1165 -30 190 -5 554 -14 810
-19 256 -6 519 -13 585 -15 66 -3 233 -1 370 4 138 5 446 14 685 20 239 6 692
17 1005 25 1000 26 1399 36 1440 36 22 1 184 7 360 15 176 7 356 14 400 15 82
1 267 11 550 29 88 6 210 12 271 15 60 3 209 14 330 24 120 11 264 23 319 26
55 4 179 15 275 26 96 11 243 26 325 35 83 8 222 26 310 40 88 13 239 35 335
50 275 41 529 90 888 173 342 78 784 223 1084 354 643 282 1177 676 1535 1132
518 661 988 2218 1307 4330 218 1442 348 2956 387 4515 15 591 6 1996 -15
2500 -25 582 -66 1239 -96 1525 -5 50 -10 114 -10 143 0 37 -3 51 -11 46 -7
-4 -9 -24 -6 -55 4 -31 2 -49 -5 -51 -9 -3 -7 -73 5 -264 32 -493 63 -1195 74
-1644 10 -459 7 -1556 -6 -1856 -20 -459 -35 -728 -51 -904 -5 -58 -16 -204
-25 -325 -9 -121 -18 -236 -20 -255 -3 -19 -12 -120 -20 -225 -21 -258 -53
-587 -90 -935 -2 -25 -12 -117 -20 -205 -13 -136 -41 -372 -85 -730 -11 -92
-73 -550 -96 -705 -21 -154 -81 -524 -109 -685 -14 -77 -37 -205 -51 -285 -64
-367 -238 -1170 -294 -1355 -10 -33 -39 -136 -64 -230 -202 -760 -494 -1467
-779 -1890 -51 -75 -149 -206 -183 -242 -215 -233 -370 -359 -689 -560 -681
-428 -1635 -756 -2770 -953 -265 -46 -612 -97 -815 -120 -102 -11 -237 -27
-300 -35 -63 -8 -203 -21 -310 -30 -107 -9 -237 -20 -288 -26 -52 -5 -135 -11
-185 -14 -284 -15 -474 -27 -485 -30 -7 -3 -120 -8 -250 -11 -130 -3 -240 -8
-244 -10 -9 -6 -746 -26 -1038 -29 -293 -3 -5287 -3 -5580 0 -304 3 -1013 23
-1031 29 -8 3 -115 7 -237 10 -123 4 -240 8 -260 11 -39 5 -299 21 -487 30
-60 3 -121 8 -135 10 -22 4 -110 12 -515 45 -66 6 -127 12 -135 15 -8 2 -121
16 -250 30 -475 53 -1078 156 -1520 259 -903 211 -1638 505 -2210 883 -170
112 -205 137 -291 207 -484 398 -813 982 -1149 2035 -168 527 -361 1344 -479
2026 -17 99 -38 214 -46 255 -21 106 -89 540 -119 760 -14 102 -37 266 -50
365 -32 227 -81 635 -101 830 -17 162 -17 164 -40 365 -24 217 -82 843 -105
1130 -11 146 -25 310 -30 365 -5 55 -14 172 -20 260 -6 88 -15 221 -20 295
-29 394 -34 622 -34 1520 -1 520 2 1037 6 1150 22 604 44 1051 72 1460 8 107
10 200 5 205 -4 6 -9 49 -11 95 -3 74 -5 57 -21 -130z"/>
<path d="M13985 5769 c-168 -12 -436 -46 -590 -75 -1161 -222 -1775 -833
-1775 -1764 0 -483 156 -870 474 -1177 165 -160 328 -268 565 -377 546 -251
1381 -358 2281 -295 539 38 990 146 1355 324 459 223 744 526 889 944 99 283
120 655 56 959 -183 863 -988 1366 -2342 1462 -169 12 -735 11 -913 -1z m643
-659 c365 -28 606 -122 778 -302 192 -200 276 -471 276 -884 0 -185 -14 -321
-47 -450 -103 -405 -348 -632 -772 -714 -279 -54 -636 -48 -899 15 -374 89
-603 311 -699 678 -40 153 -50 249 -50 472 0 122 5 245 13 295 45 294 157 514
332 657 223 182 616 267 1068 233z"/>
<path d="M5190 5415 l0 -235 23 -4 c12 -3 125 -17 251 -31 126 -15 246 -33
265 -41 51 -21 96 -68 123 -128 l23 -51 0 -1000 c0 -949 -1 -1003 -19 -1053
-23 -67 -68 -120 -124 -144 -28 -13 -123 -29 -290 -48 -136 -17 -250 -30 -254
-30 -5 0 -8 -103 -8 -230 l0 -230 1390 0 1390 0 0 230 c0 127 -3 230 -7 230
-5 0 -121 13 -259 29 -278 32 -308 41 -363 108 -59 71 -64 104 -69 461 l-4
322 1072 0 1071 0 -3 -332 c-3 -323 -4 -334 -26 -384 -27 -60 -63 -97 -112
-118 -20 -8 -141 -26 -270 -41 -129 -14 -245 -28 -257 -31 l-23 -4 0 -235 0
-235 1385 0 1385 0 0 235 0 234 -32 6 c-18 3 -134 16 -258 30 -261 29 -295 41
-347 119 -18 26 -37 64 -43 84 -6 24 -10 380 -10 1014 0 923 1 979 19 1036 10
33 30 76 45 95 48 63 87 74 346 102 129 14 245 28 258 31 l22 4 0 235 0 235
-1385 0 -1385 0 0 -233 0 -233 258 -32 c288 -36 326 -48 374 -118 51 -73 58
-128 58 -461 l0 -303 -1071 0 -1071 0 4 318 c5 348 11 384 69 455 50 61 91 73
344 102 127 14 242 28 258 31 l27 6 0 234 0 234 -1385 0 -1385 0 0 -235z"/>
<path d="M17430 5416 l0 -235 33 -6 c17 -3 131 -17 252 -31 120 -14 235 -32
255 -40 53 -23 108 -82 128 -139 15 -46 17 -136 20 -1010 2 -665 0 -980 -8
-1024 -19 -107 -64 -173 -144 -206 -29 -12 -470 -75 -528 -75 -5 0 -8 -103 -8
-230 l0 -230 1110 0 1110 0 0 230 c0 127 -3 230 -7 230 -5 0 -121 13 -259 29
-277 32 -308 42 -363 108 -69 84 -65 28 -68 1043 l-3 915 21 -25 c12 -14 430
-563 929 -1221 500 -657 925 -1210 946 -1228 20 -18 58 -43 83 -54 46 -22 48
-22 969 -25 l922 -2 0 1297 c0 746 4 1333 10 1380 14 126 61 203 142 237 20 9
137 27 260 41 123 14 238 27 256 30 l32 6 0 234 0 235 -1110 0 -1110 0 0 -233
0 -232 255 -33 c140 -18 273 -39 295 -48 51 -21 102 -79 126 -147 17 -49 19
-103 22 -962 2 -586 0 -906 -7 -900 -5 6 -420 552 -921 1215 -502 663 -926
1220 -944 1238 -17 18 -60 48 -96 65 l-65 32 -1267 3 -1268 2 0 -234z"/>
<path d="M23810 5415 l0 -235 23 -4 c12 -3 113 -14 225 -25 270 -27 322 -50
374 -165 l23 -51 3 -1004 c3 -1121 5 -1074 -65 -1152 -20 -22 -50 -47 -66 -55
-16 -9 -131 -29 -255 -45 -125 -16 -237 -32 -249 -34 l-23 -5 0 -225 0 -226
1918 4 c2103 3 1955 -1 2277 63 632 125 1090 437 1320 899 131 264 182 520
172 869 -7 257 -42 415 -138 624 -133 288 -404 559 -720 718 -315 158 -684
247 -1139 274 -97 6 -886 10 -1922 10 l-1758 0 0 -235z m3145 -435 c285 -21
479 -74 620 -169 58 -39 147 -137 187 -203 89 -150 126 -318 135 -608 22 -760
-196 -1057 -827 -1131 -84 -10 -269 -14 -680 -14 l-565 0 -3 1055 c-1 580 0
1061 3 1068 6 15 916 17 1130 2z"/>
<path d="M30380 5415 l0 -235 23 -4 c12 -3 146 -19 297 -36 151 -17 293 -35
315 -41 110 -30 163 -141 116 -244 -10 -22 -278 -463 -596 -980 -318 -517
-591 -962 -607 -990 -41 -69 -94 -122 -151 -151 -40 -21 -85 -29 -260 -49
-117 -14 -231 -27 -254 -30 l-43 -6 0 -230 0 -229 1110 0 1110 0 0 233 0 233
-215 27 c-119 15 -233 34 -255 43 -45 18 -96 72 -106 110 -11 44 15 105 110
259 l93 150 1060 3 1061 2 92 -141 c134 -203 146 -267 65 -338 -49 -43 -110
-58 -357 -88 l-218 -27 0 -233 0 -233 1500 0 1500 0 0 235 0 234 -32 6 c-18 3
-134 16 -258 30 -262 30 -297 42 -382 129 -68 69 -22 -1 -967 1446 -439 672
-805 1222 -836 1257 -36 40 -75 72 -113 90 l-57 28 -1372 3 -1373 2 0 -235z
m2073 -1027 l336 -528 -670 0 -669 0 50 81 c28 44 177 283 331 530 155 248
282 449 284 447 1 -2 154 -240 338 -530z"/>
</g>
</svg>
