<?xml version="1.0" standalone="no"?>
<!DOCTYPE svg PUBLIC "-//W3C//DTD SVG 20010904//EN"
 "http://www.w3.org/TR/2001/REC-SVG-20010904/DTD/svg10.dtd">
<svg version="1.0" xmlns="http://www.w3.org/2000/svg"
 width="32.000000pt" height="32.000000pt" viewBox="0 0 32.000000 32.000000"
 preserveAspectRatio="xMidYMid meet">

<g transform="translate(0.000000,32.000000) scale(0.100000,-0.100000)"
fill="#000000" stroke="none">
<path d="M0 296 c0 -16 7 -26 22 -29 30 -8 35 -1 15 21 -10 10 -14 22 -10 25
3 4 -1 7 -10 7 -11 0 -17 -8 -17 -24z"/>
<path d="M92 303 c25 -30 27 -59 6 -72 -20 -12 -20 -13 2 -37 l23 -24 44 43
c23 23 43 48 43 56 0 8 7 23 17 33 15 17 13 18 -67 18 -78 0 -82 -1 -68 -17z"/>
<path d="M290 316 c0 -2 7 -9 15 -16 12 -10 15 -10 15 4 0 9 -7 16 -15 16 -8
0 -15 -2 -15 -4z"/>
<path d="M50 295 c15 -18 6 -45 -15 -45 -22 0 -18 -18 6 -25 22 -7 59 18 59
41 0 17 -28 44 -47 44 -13 0 -13 -3 -3 -15z"/>
<path d="M236 294 c-21 -21 -20 -37 3 -58 40 -36 91 15 55 55 -21 23 -37 24
-58 3z m52 -27 c4 -20 -25 -34 -40 -19 -15 15 -1 44 19 40 10 -2 19 -11 21
-21z"/>
<path d="M255 269 c-10 -15 3 -25 16 -12 7 7 7 13 1 17 -6 3 -14 1 -17 -5z"/>
<path d="M0 160 c0 -80 1 -82 18 -67 10 10 25 17 34 17 8 0 25 11 38 25 l23
25 -23 25 c-13 14 -30 25 -38 25 -9 0 -24 7 -34 17 -17 15 -18 13 -18 -67z"/>
<path d="M146 171 c-54 -55 -65 -70 -53 -79 10 -9 27 3 81 57 54 55 65 70 53
79 -10 9 -27 -3 -81 -57z"/>
<path d="M300 225 c-7 -8 -20 -15 -29 -15 -10 0 -28 -11 -41 -25 l-23 -25 23
-25 c13 -14 30 -25 38 -25 9 0 24 -7 34 -17 17 -15 18 -13 18 65 0 45 -2 82
-4 82 -2 0 -9 -7 -16 -15z"/>
<path d="M182 137 c-9 -11 -7 -19 12 -36 19 -18 25 -19 34 -8 9 11 7 19 -12
36 -19 18 -25 19 -34 8z"/>
<path d="M132 87 c-12 -13 -22 -29 -22 -37 0 -7 -7 -22 -17 -32 -15 -17 -13
-18 67 -18 80 0 82 1 67 18 -10 10 -17 25 -17 34 0 13 -39 58 -51 58 -3 0 -15
-10 -27 -23z"/>
<path d="M26 84 c-21 -21 -20 -37 3 -58 40 -36 91 15 55 55 -21 23 -37 24 -58
3z m52 -27 c4 -20 -25 -34 -40 -19 -15 15 -1 44 19 40 10 -2 19 -11 21 -21z"/>
<path d="M45 61 c-6 -11 9 -23 19 -14 9 9 7 23 -3 23 -6 0 -12 -4 -16 -9z"/>
<path d="M237 82 c-21 -23 -21 -36 -1 -56 21 -22 52 -22 34 -1 -15 18 -6 45
15 45 20 0 19 16 -1 24 -24 9 -29 8 -47 -12z"/>
<path d="M270 52 c0 -5 7 -15 15 -22 8 -7 12 -16 9 -21 -3 -5 2 -9 10 -9 10 0
16 9 16 25 0 14 -4 25 -9 25 -5 0 -16 3 -25 6 -9 3 -16 2 -16 -4z"/>
<path d="M0 15 c0 -8 7 -15 16 -15 14 0 14 3 4 15 -16 19 -20 19 -20 0z"/>
</g>
</svg>
